<svg width="203" height="32" viewBox="0 0 203 32" fill="none" xmlns="http://www.w3.org/2000/svg">
<path d="M32 7H34.8125V24.2734H32V7ZM43.7188 24.2734H40.7422L37.4844 18.0156C37.4375 18.0156 37.3828 18.0234 37.3203 18.0391C37.2734 18.0391 37.1953 18.0391 37.0859 18.0391C36.9766 18.0391 36.8125 18.0391 36.5938 18.0391C36.3906 18.0391 36.1172 18.0391 35.7734 18.0391V15.9766H37.3672C37.7109 15.9766 38.0547 15.9219 38.3984 15.8125C38.7422 15.6875 39.0547 15.4922 39.3359 15.2266C39.6172 14.9609 39.8438 14.5938 40.0156 14.125C40.1875 13.6406 40.2734 13.0469 40.2734 12.3438C40.2734 12.0625 40.2344 11.7422 40.1562 11.3828C40.0781 11.0078 39.9141 10.6562 39.6641 10.3281C39.4297 9.98438 39.0938 9.70312 38.6562 9.48438C38.2188 9.25 37.6406 9.13281 36.9219 9.13281H35.7734V7H36.9688C37.7031 7 38.4297 7.11719 39.1484 7.35156C39.8672 7.58594 40.5078 7.9375 41.0703 8.40625C41.6484 8.875 42.1094 9.44531 42.4531 10.1172C42.8125 10.7734 42.9922 11.5156 42.9922 12.3438C42.9922 13.5938 42.7031 14.6562 42.125 15.5312C41.5469 16.4062 40.7656 17.0547 39.7812 17.4766L43.7188 24.2734Z" fill="white"/>
<path d="M61.6719 24.2734H58.7656L54.2891 11.3359L49.7656 24.2734H46.8359L52.8828 7.02344H55.6719L61.6719 24.2734ZM55.8359 18.7891L56.5156 20.6875H52.0391L52.6953 18.7891H55.8359Z" fill="white"/>
<path d="M64.5547 7H67.7656L71.3984 20.5469V24.3672H69.9219L64.5547 7ZM76.0156 7H79.2031L73.5781 24.3672H72.3594V19.7969L76.0156 7Z" fill="white"/>
<path d="M85.625 24.2734H82.7656V7H85.625V24.2734Z" fill="white"/>
<path d="M96.3594 7H99.2188L103.859 17.6641V22H103.109L99.2188 12.3906V24.2734H96.3594V7ZM109.461 7H112.32V24.2734H109.461V12.3906L105.594 22H104.82V17.7109L109.461 7Z" fill="white"/>
<path d="M130.789 24.2734H127.883L123.406 11.3359L118.883 24.2734H115.953L122 7.02344H124.789L130.789 24.2734ZM124.953 18.7891L125.633 20.6875H121.156L121.813 18.7891H124.953Z" fill="white"/>
<path d="M137.305 7V22.1406H145.25V24.2734H134.445V7H137.305Z" fill="white"/>
<path d="M147.359 7H150.57L154.203 20.5469V24.3672H152.727L147.359 7ZM158.82 7H162.008L156.383 24.3672H155.164V19.7969L158.82 7Z" fill="white"/>
<path d="M168.43 24.2734H165.57V7H168.43V24.2734Z" fill="white"/>
<path d="M181.508 7H184.719L179.586 17.2422V24.2734H176.727V18.5078L181.508 7ZM175.062 7L177.664 13.7266L176.398 16.7969L171.852 7H175.062Z" fill="white"/>
<path d="M202.25 24.2734H199.344L194.867 11.3359L190.344 24.2734H187.414L193.461 7.02344H196.25L202.25 24.2734ZM196.414 18.7891L197.094 20.6875H192.617L193.273 18.7891H196.414Z" fill="white"/>
<path fill-rule="evenodd" clip-rule="evenodd" d="M9.84998 10.3342L18.8212 5.65423L11.8013 1.39157L11.9901 1.29313L20.8207 6.65537L11.6608 11.4338L9.84998 10.3342ZM9.66125 10.4327L0.830841 5.07043L9.99054 0.291992L11.8013 1.39157L2.83035 6.07157L9.84998 10.3342L9.66125 10.4327ZM11.4721 11.5322L11.6608 11.4338L20.4914 16.796L11.3317 21.5745L9.52088 20.4749L18.4919 15.7949L11.4721 11.5322ZM11.4721 11.5322L2.50107 16.2122L9.52088 20.4749L9.33218 20.5733L0.501555 15.2111L9.66125 10.4327L11.4721 11.5322ZM9.18388 30.8599L8.99517 30.9584L0.164551 25.5961L9.32425 20.8177L11.1351 21.9173L2.16406 26.5973L9.18388 30.8599ZM9.18388 30.8599L18.1549 26.1799L11.1351 21.9173L11.3238 21.8188L20.1544 27.1811L10.9947 31.9595L9.18388 30.8599Z" fill="#F3F3F3"/>
</svg>
