<svg width="33" height="52" viewBox="0 0 33 52" fill="none" xmlns="http://www.w3.org/2000/svg">
<path d="M25.2241 0L29.0675 2.28642L4.63165 51.2343L0.0973674 48.797L25.2241 0ZM23.7432 45.3293L19.3315 43.0509L19.2978 31.2728C19.2283 31.237 19.1413 31.2067 19.0366 31.182C18.9672 31.1462 18.8514 31.0864 18.6893 31.0026C18.5272 30.9189 18.284 30.7933 17.9598 30.6259C17.6587 30.4704 17.2534 30.2611 16.7439 29.998L18.3243 26.938L20.6864 28.1579C21.1959 28.421 21.7473 28.603 22.3406 28.7038C22.9459 28.7815 23.5587 28.7309 24.1791 28.5521C24.7995 28.3733 25.4166 28.002 26.0305 27.4381C26.6564 26.851 27.2387 26.0358 27.7774 24.9927C27.9929 24.5754 28.1805 24.0703 28.34 23.4773C28.5116 22.8611 28.5378 22.2139 28.4187 21.5357C28.3347 20.8463 28.0523 20.1719 27.5714 19.5125C27.1026 18.8299 26.3355 18.2135 25.2702 17.6633L23.568 16.7843L25.2022 13.6199L26.9739 14.5349C28.0623 15.097 29.0494 15.827 29.9351 16.7249C30.8208 17.6228 31.501 18.6348 31.9755 19.7608C32.4732 20.8987 32.7194 22.0977 32.7141 23.3577C32.7439 24.6064 32.4416 25.8451 31.807 27.0737C30.8493 28.9283 29.6067 30.2834 28.0794 31.139C26.5521 31.9947 24.8974 32.3588 23.1151 32.2312L23.7432 45.3293Z" fill="url(#paint0_linear_568_28)"/>
<defs>
<linearGradient id="paint0_linear_568_28" x1="108.558" y1="56.6682" x2="93.2104" y2="88.2081" gradientUnits="userSpaceOnUse">
<stop stop-color="#FF5A8C"/>
<stop offset="1" stop-color="#72777B"/>
</linearGradient>
</defs>
</svg>
